<mxfile host="app.diagrams.net" modified="2023-03-25T10:13:31.156Z" agent="Mozilla/5.0 (Windows NT 10.0; Win64; x64) AppleWebKit/537.36 (KHTML, like Gecko) Chrome/111.0.0.0 Safari/537.36" etag="E-Q4evtkd_TbMun0oDMZ" version="21.1.1" type="github">
  <diagram name="Page-1" id="7a6c530e-6e37-e111-ec74-82921da8cc10">
    <mxGraphModel dx="2229" dy="1189" grid="1" gridSize="10" guides="1" tooltips="1" connect="1" arrows="1" fold="1" page="1" pageScale="1.5" pageWidth="1169" pageHeight="826" background="#FFFFFF" math="0" shadow="0">
      <root>
        <mxCell id="0" style=";html=1;" />
        <mxCell id="1" style=";html=1;" parent="0" />
        <mxCell id="JD7Gm_CG1jl6nIxou-Iz-1" value="" style="rounded=0;whiteSpace=wrap;html=1;fillColor=#1ba1e2;strokeColor=#006EAF;fontColor=#ffffff;" vertex="1" parent="1">
          <mxGeometry x="210" y="100" width="1300" height="950" as="geometry" />
        </mxCell>
        <mxCell id="JD7Gm_CG1jl6nIxou-Iz-2" value="" style="rounded=1;whiteSpace=wrap;html=1;fillColor=#fa6800;strokeColor=#C73500;fontColor=#000000;" vertex="1" parent="1">
          <mxGeometry x="340" y="220" width="1050" height="760" as="geometry" />
        </mxCell>
        <mxCell id="JD7Gm_CG1jl6nIxou-Iz-3" value="" style="rounded=0;whiteSpace=wrap;html=1;" vertex="1" parent="1">
          <mxGeometry x="1040" y="440" width="120" height="60" as="geometry" />
        </mxCell>
        <mxCell id="JD7Gm_CG1jl6nIxou-Iz-4" value="" style="rounded=1;whiteSpace=wrap;html=1;glass=0;shadow=0;fillColor=#60a917;fontColor=#ffffff;strokeColor=#2D7600;" vertex="1" parent="1">
          <mxGeometry x="490" y="340" width="740" height="490" as="geometry" />
        </mxCell>
        <mxCell id="JD7Gm_CG1jl6nIxou-Iz-8" value="&lt;h1&gt;&lt;font color=&quot;#ffffff&quot; style=&quot;font-size: 40px;&quot;&gt;Front End Application&lt;/font&gt;&lt;/h1&gt;" style="text;strokeColor=none;align=center;fillColor=none;html=1;verticalAlign=middle;whiteSpace=wrap;rounded=0;" vertex="1" parent="1">
          <mxGeometry x="220" y="130" width="1290" height="30" as="geometry" />
        </mxCell>
        <mxCell id="JD7Gm_CG1jl6nIxou-Iz-9" value="&lt;h1&gt;&lt;font color=&quot;#ffffff&quot; style=&quot;font-size: 40px;&quot;&gt;Application Root Component&lt;/font&gt;&lt;/h1&gt;" style="text;strokeColor=none;align=center;fillColor=none;html=1;verticalAlign=middle;whiteSpace=wrap;rounded=0;" vertex="1" parent="1">
          <mxGeometry x="380" y="260" width="990" height="30" as="geometry" />
        </mxCell>
        <mxCell id="JD7Gm_CG1jl6nIxou-Iz-10" value="&lt;h1&gt;&lt;font color=&quot;#ffffff&quot;&gt;&lt;span style=&quot;font-size: 40px;&quot;&gt;Dynamic Form Plugin Component&lt;/span&gt;&lt;/font&gt;&lt;/h1&gt;" style="text;strokeColor=none;align=center;fillColor=none;html=1;verticalAlign=middle;whiteSpace=wrap;rounded=0;" vertex="1" parent="1">
          <mxGeometry x="380" y="370" width="990" height="30" as="geometry" />
        </mxCell>
        <mxCell id="JD7Gm_CG1jl6nIxou-Iz-11" value="&lt;font style=&quot;font-size: 24px;&quot;&gt;Select Box&lt;/font&gt;" style="rounded=1;whiteSpace=wrap;html=1;fillColor=#e3c800;fontColor=#000000;strokeColor=#B09500;" vertex="1" parent="1">
          <mxGeometry x="560" y="470" width="170" height="80" as="geometry" />
        </mxCell>
        <mxCell id="JD7Gm_CG1jl6nIxou-Iz-12" value="&lt;font style=&quot;font-size: 24px;&quot;&gt;Check Box&lt;/font&gt;" style="rounded=1;whiteSpace=wrap;html=1;fillColor=#e3c800;fontColor=#000000;strokeColor=#B09500;" vertex="1" parent="1">
          <mxGeometry x="810" y="470" width="170" height="80" as="geometry" />
        </mxCell>
        <mxCell id="JD7Gm_CG1jl6nIxou-Iz-13" value="Radio" style="rounded=1;whiteSpace=wrap;html=1;fillColor=#e3c800;fontColor=#000000;strokeColor=#B09500;fontSize=24;" vertex="1" parent="1">
          <mxGeometry x="1040" y="470" width="170" height="80" as="geometry" />
        </mxCell>
        <mxCell id="JD7Gm_CG1jl6nIxou-Iz-14" value="Multi Select" style="rounded=1;whiteSpace=wrap;html=1;fillColor=#e3c800;fontColor=#000000;strokeColor=#B09500;fontSize=24;" vertex="1" parent="1">
          <mxGeometry x="560" y="650" width="170" height="80" as="geometry" />
        </mxCell>
        <mxCell id="JD7Gm_CG1jl6nIxou-Iz-15" value="Text Box" style="rounded=1;whiteSpace=wrap;html=1;fillColor=#e3c800;fontColor=#000000;strokeColor=#B09500;fontSize=24;" vertex="1" parent="1">
          <mxGeometry x="810" y="650" width="170" height="80" as="geometry" />
        </mxCell>
        <mxCell id="JD7Gm_CG1jl6nIxou-Iz-16" value="Text Area" style="rounded=1;whiteSpace=wrap;html=1;fillColor=#e3c800;fontColor=#000000;strokeColor=#B09500;fontSize=24;" vertex="1" parent="1">
          <mxGeometry x="1040" y="650" width="170" height="80" as="geometry" />
        </mxCell>
      </root>
    </mxGraphModel>
  </diagram>
</mxfile>
